<svg  class="icon" viewBox="0 0 1024 1024" version="1.1" xmlns="http://www.w3.org/2000/svg"
     width="200" height="200">
    <path d="M256.67 194.02l-43.13-6.2c-3.43-0.72-6.4-2.92-7.63-5.75l-19.09-40.37c-7.3-15.73-28.71-15.73-36.04 0.03l-19 40.17c-1.84 3.39-4.6 5.59-7.51 5.89L81.05 194c-16.66 2.74-23.24 23.31-11.35 35.55l31.08 30.98c2.5 2.58 3.69 6.06 3.08 9.2l-7.53 43.93c-2.67 17.17 14.65 30.17 29.34 21.91L164.11 315c3.12-1.78 6.28-1.78 9.27-0.07l38.66 20.68c14.6 8.2 31.92-4.8 29.26-21.88l-7.52-43.89c-0.32-3.43 0.8-6.99 3.12-9.38l30.96-30.86c11.94-12.29 5.37-32.86-11.19-35.58z m0 555.94l-43.13-6.2c-3.43-0.72-6.4-2.92-7.63-5.75l-19.09-40.37c-7.3-15.73-28.71-15.73-36.04 0.03l-19 40.16c-1.84 3.39-4.6 5.59-7.51 5.89l-43.23 6.21c-16.66 2.74-23.24 23.31-11.35 35.55l31.08 30.98c2.5 2.57 3.69 6.05 3.08 9.2l-7.53 43.92c-2.67 17.16 14.65 30.16 29.34 21.91l38.44-20.57c3.12-1.78 6.28-1.78 9.27-0.07l38.66 20.69c14.6 8.2 31.92-4.8 29.26-21.88l-7.52-43.89c-0.32-3.43 0.8-7 3.12-9.37l30.96-30.87c11.95-12.27 5.38-32.84-11.18-35.57z m0-283.45l-43.13-6.21c-3.43-0.71-6.4-2.92-7.63-5.75l-19.09-40.37c-7.3-15.73-28.71-15.73-36.04 0.03l-19 40.16c-1.84 3.39-4.6 5.59-7.51 5.89l-43.23 6.21c-16.66 2.74-23.24 23.31-11.35 35.55L100.77 533c2.5 2.58 3.69 6.05 3.08 9.2l-7.53 43.93c-2.67 17.16 14.65 30.16 29.34 21.91l38.44-20.57c3.12-1.78 6.28-1.78 9.27-0.07l38.66 20.69c14.6 8.2 31.92-4.8 29.26-21.88l-7.52-43.89c-0.32-3.43 0.8-7 3.12-9.37l30.96-30.87c11.95-12.28 5.38-32.84-11.18-35.57zM421.9 283.33h495.24c28.22 0 43.21-16.12 43.21-35.82s-15-35.82-43.21-35.82H421.9c-28.22 0-43.21 16.12-43.21 35.82s14.99 35.82 43.21 35.82z m495.24 190.86H421.9c-28.22 0-43.21 16.12-43.21 35.82s15 35.82 43.21 35.82h495.24c28.22 0 43.21-16.12 43.21-35.82 0-19.71-14.99-35.82-43.21-35.82z m0 286.36H421.9c-28.22 0-43.21 16.12-43.21 35.82s15 35.82 43.21 35.82h495.24c28.22 0 43.21-16.12 43.21-35.82s-14.99-35.82-43.21-35.82z"
          ></path>
</svg>