<svg t="1726831820350" class="icon" viewBox="0 0 1024 1024" version="1.1" xmlns="http://www.w3.org/2000/svg" p-id="6790" width="200" height="200"><path d="M818.112 967.616l-222.72-124.352c-118.208 17.344-227.008-0.512-322.944-45.76-73.152-34.624-132.032-82.24-175.04-141.632C54.016 596.032 32 529.664 32 458.56c0-71.04 21.952-137.6 65.344-197.76 42.88-59.584 101.824-107.2 175.104-141.568C345.472 84.992 426.112 67.648 512 67.648c86.016 0 166.592 17.344 239.424 51.584 73.28 34.304 132.16 81.92 175.168 141.568 43.392 60.224 65.344 126.784 65.344 197.76 0 60.864-16.448 118.72-48.832 172.032a415.872 415.872 0 0 1-125.056 129.088v207.936z m-216.768-157.696l184.768 103.168v-170.816l7.296-4.736c51.904-33.536 93.12-75.136 122.432-123.584 29.312-48.192 44.16-100.48 44.16-155.392 0-64.128-20.032-124.416-59.392-179.072-39.68-55.168-94.528-99.328-162.752-131.264C669.248 115.968 593.28 99.648 512 99.648c-81.216 0-157.248 16.32-225.984 48.576-68.288 32-123.072 76.16-162.752 131.264C83.968 334.144 64 394.368 64 458.56c0 64.192 19.968 124.288 59.264 178.56 39.808 54.912 94.592 99.136 162.816 131.456 91.648 43.2 196.032 60.096 309.76 42.24l5.504-0.896z" fill="" p-id="6791"></path><path d="M238.976 564.864a92.864 92.864 0 1 1 92.8-92.864c0 51.2-41.6 92.864-92.8 92.864z m0-153.664a60.8 60.8 0 1 0 0.128 121.728 60.8 60.8 0 0 0-0.128-121.728zM508.032 564.864a92.864 92.864 0 1 1 92.8-92.864c0 51.2-41.664 92.864-92.8 92.864z m0-153.664a60.8 60.8 0 1 0 0.128 121.728 60.8 60.8 0 0 0-0.128-121.728zM777.024 564.864a92.864 92.864 0 1 1 92.8-92.864c0 51.2-41.664 92.864-92.8 92.864z m0-153.664c-33.472 0-60.8 27.264-60.8 60.8s27.328 60.8 60.8 60.8 60.8-27.264 60.8-60.8-27.328-60.8-60.8-60.8z" fill="" p-id="6792"></path></svg>